<?xml version="1.0" encoding="UTF-8" standalone="no"?>
<svg
   width="700pt"
   height="700pt"
   version="1.1"
   viewBox="0 0 700 700"
   id="svg338"
   sodipodi:docname="noun-stairs-151648.svg"
   xmlns:inkscape="http://www.inkscape.org/namespaces/inkscape"
   xmlns:sodipodi="http://sodipodi.sourceforge.net/DTD/sodipodi-0.dtd"
   xmlns="http://www.w3.org/2000/svg"
   xmlns:svg="http://www.w3.org/2000/svg">
  <sodipodi:namedview
     id="namedview340"
     pagecolor="#ffffff"
     bordercolor="#000000"
     borderopacity="0.25"
     inkscape:showpageshadow="2"
     inkscape:pageopacity="0.0"
     inkscape:pagecheckerboard="0"
     inkscape:deskcolor="#d1d1d1"
     inkscape:document-units="pt"
     showgrid="false" />
  <defs
     id="defs254" />
  <g
     id="g336">
    <rect
       style="fill:#ccffaa;stroke-width:0.728433"
       id="rect612"
       width="732.71655"
       height="714.31348"
       x="-12.95034"
       y="-6.1343722" />
    <path
       d="M 648.75252,107.85505 502.11136,33.732785 c -5.16045,-2.616251 -11.23127,-2.616251 -16.39631,0 L 45.791574,256.09958 c -6.208944,3.14358 -10.131725,9.55489 -10.131725,16.57559 v 296.48906 c 0,7.02137 3.922781,13.43731 10.131725,16.5756 l 146.641156,74.12226 c 2.58285,1.30293 5.39064,1.95445 8.19842,1.95445 2.80779,0 5.6157,-0.65147 8.19842,-1.95445 l 439.92348,-222.3668 c 6.20894,-3.13841 10.13172,-9.55489 10.13172,-16.57559 V 124.43064 c 0,-7.02136 -3.92278,-13.43201 -10.13172,-16.57559 z M 567.23313,160.39583 441.08508,96.634794 493.91255,69.9296 620.06061,133.69593 Z m -73.32058,83.39283 -126.14805,-63.76632 52.82747,-26.6999 126.14806,63.76103 z m -73.32058,83.38755 -126.14805,-63.76632 52.82747,-26.6999 126.14806,63.76632 z m -73.32058,83.38755 -126.14805,-63.76632 52.82747,-26.6999 126.14806,63.76103 z m -73.32058,83.38755 -126.14805,-63.76632 52.82748,-26.6999 126.14805,63.76632 z m -73.32057,83.38755 -126.148061,-63.76633 52.827481,-26.69989 126.14805,63.76103 z m 64.1555,-67.30302 v 25.60925 L 136.47473,470.7881 v -25.60924 z m 73.32058,-83.38755 v 25.60925 L 209.79531,387.40055 v -25.60924 z m 73.32058,-83.38755 v 25.60925 L 283.11589,304.01301 v -25.60925 z m 73.32058,-83.38754 v 25.60924 L 356.43647,220.62546 v -25.60925 z m -54.99043,-148.24453 128.31101,64.85698 v 25.60924 L 429.75705,137.23791 Z M 72.319222,557.71234 v -24.51329 l 119.145938,60.22434 v 24.5133 z M 411.4269,112.71403 v 24.51329 l -68.25229,34.50127 c -0.11758,0.0569 -0.20458,0.15511 -0.3171,0.22232 -0.13297,0.0724 -0.27619,0.10338 -0.40404,0.18613 -0.28641,0.17579 -0.51144,0.42914 -0.77739,0.63595 -0.27107,0.21716 -0.55236,0.40846 -0.79274,0.65147 -0.3529,0.34642 -0.63931,0.73936 -0.92571,1.13231 -0.18924,0.25852 -0.40404,0.49636 -0.5626,0.77039 -0.27106,0.46532 -0.46029,0.97203 -0.64442,1.47357 -0.0971,0.25852 -0.22504,0.49636 -0.30175,0.76522 -0.2148,0.79107 -0.33755,1.60793 -0.33755,2.45596 v 40.59783 l -68.2523,34.50127 c -0.11757,0.0569 -0.20457,0.15511 -0.31709,0.22232 -0.13298,0.0724 -0.27619,0.10338 -0.40404,0.18613 -0.28641,0.17579 -0.51144,0.42914 -0.77739,0.63595 -0.27107,0.21716 -0.55237,0.40846 -0.79274,0.65147 -0.3529,0.34642 -0.63931,0.73936 -0.92572,1.13231 -0.18923,0.25852 -0.40403,0.49636 -0.56259,0.77039 -0.27106,0.46532 -0.46029,0.97202 -0.64442,1.47357 -0.0972,0.25852 -0.22504,0.49636 -0.30175,0.76521 -0.21481,0.79107 -0.33755,1.60792 -0.33755,2.45596 v 40.59782 l -68.2523,34.50127 c -0.11757,0.0569 -0.20457,0.15512 -0.31709,0.22233 -0.13298,0.0724 -0.27107,0.10337 -0.40404,0.18614 -0.28641,0.17579 -0.51144,0.42914 -0.77739,0.63595 -0.27107,0.21716 -0.55237,0.40846 -0.79274,0.65147 -0.3529,0.34642 -0.63931,0.73936 -0.92571,1.13231 -0.18924,0.25852 -0.40404,0.49636 -0.5626,0.77039 -0.27106,0.46532 -0.46029,0.97203 -0.64442,1.47357 -0.0971,0.25852 -0.22504,0.49636 -0.30175,0.76521 -0.23015,0.78072 -0.3529,1.5976 -0.3529,2.44047 v 40.59783 l -68.25229,34.50127 c -0.11763,0.0569 -0.20458,0.15511 -0.3171,0.22232 -0.13297,0.0724 -0.27618,0.10338 -0.40403,0.18613 -0.28641,0.17579 -0.51144,0.42914 -0.7774,0.63596 -0.27106,0.21715 -0.55235,0.40845 -0.79274,0.65146 -0.35289,0.34642 -0.6393,0.73936 -0.92571,1.13231 -0.18923,0.25852 -0.40404,0.49636 -0.56259,0.77039 -0.27106,0.46533 -0.4603,0.97203 -0.64442,1.47357 -0.0972,0.25852 -0.22505,0.49636 -0.30176,0.76522 -0.2148,0.79107 -0.33755,1.60793 -0.33755,2.45597 V 470.7815 L 72.323831,493.94471 V 284.12575 Z M 209.79531,617.93669 v -24.5133 l 68.25229,-34.50126 c 0.12268,-0.0672 0.21992,-0.17063 0.33755,-0.23784 0.12268,-0.0672 0.25572,-0.0982 0.38359,-0.17063 0.2864,-0.17579 0.51143,-0.42914 0.77739,-0.63596 0.27106,-0.21715 0.55235,-0.40845 0.79274,-0.65147 0.35289,-0.34641 0.6393,-0.73935 0.92571,-1.13231 0.18923,-0.25851 0.40404,-0.49635 0.56259,-0.77038 0.27107,-0.46533 0.4603,-0.97203 0.64442,-1.47357 0.0971,-0.25852 0.22505,-0.49636 0.30176,-0.76522 0.2148,-0.79107 0.33755,-1.60793 0.33755,-2.45597 v -40.59782 l 68.25229,-34.50127 c 0.12268,-0.0672 0.21992,-0.17062 0.33755,-0.23784 0.12268,-0.0672 0.25572,-0.0982 0.38359,-0.17062 0.2864,-0.17579 0.51143,-0.42915 0.77739,-0.63596 0.27106,-0.21715 0.55237,-0.40845 0.79274,-0.65147 0.35289,-0.34641 0.6393,-0.73936 0.92571,-1.13231 0.18923,-0.25851 0.40404,-0.49635 0.56259,-0.77038 0.27107,-0.46533 0.4603,-0.97202 0.64443,-1.47358 0.0972,-0.25851 0.22504,-0.49635 0.30175,-0.7652 0.2148,-0.79107 0.33755,-1.60793 0.33755,-2.45597 v -40.59782 l 68.25229,-34.50127 c 0.12268,-0.0672 0.21993,-0.17063 0.33755,-0.23784 0.12268,-0.0672 0.25572,-0.0982 0.38359,-0.17062 0.28641,-0.17579 0.51143,-0.42915 0.77739,-0.63596 0.27107,-0.21715 0.55237,-0.40845 0.79274,-0.65147 0.3529,-0.34641 0.6393,-0.73936 0.92571,-1.13231 0.18924,-0.25851 0.40404,-0.49635 0.56259,-0.77038 0.27107,-0.46533 0.4603,-0.97204 0.64443,-1.47358 0.0971,-0.25851 0.22504,-0.49635 0.30175,-0.7652 0.2148,-0.79107 0.33755,-1.60793 0.33755,-2.45597 v -40.59782 l 68.25229,-34.50127 c 0.12269,-0.0672 0.21993,-0.17063 0.33755,-0.23784 0.12269,-0.0672 0.25572,-0.0982 0.38359,-0.17063 0.28641,-0.17578 0.51144,-0.42914 0.77739,-0.63595 0.27107,-0.21715 0.55237,-0.40845 0.79274,-0.65147 0.3529,-0.34642 0.63931,-0.73936 0.92571,-1.13231 0.18924,-0.25851 0.40404,-0.49635 0.5626,-0.77038 0.27106,-0.46533 0.46029,-0.97204 0.64442,-1.47358 0.0971,-0.25851 0.22504,-0.49635 0.30175,-0.76521 0.2148,-0.79107 0.33755,-1.60792 0.33755,-2.45596 V 259.8537 l 68.2523,-34.50127 c 0.12268,-0.0672 0.21992,-0.17063 0.33755,-0.23784 0.12268,-0.0672 0.25571,-0.0982 0.38358,-0.17063 0.28641,-0.17578 0.51145,-0.42914 0.77739,-0.63595 0.27107,-0.21715 0.55237,-0.40845 0.79274,-0.65147 0.3529,-0.34642 0.63931,-0.73936 0.92572,-1.13231 0.18923,-0.25851 0.40403,-0.49635 0.56259,-0.77038 0.27106,-0.46533 0.46029,-0.97204 0.64442,-1.47358 0.0971,-0.25851 0.22503,-0.49635 0.30175,-0.76521 0.21481,-0.79107 0.33755,-1.60792 0.33755,-2.45596 v -40.59782 l 45.82537,-23.1632 v 256.14536 z"
       id="path256"
       style="fill:#225500;stroke-width:1.31643" />
  </g>
</svg>
